<svg width="1277" height="519" viewBox="0 0 1277 519" fill="none" xmlns="http://www.w3.org/2000/svg">
<g opacity="0.8" clip-path="url(#clip0_2793_1198)">
<g filter="url(#filter0_f_2793_1198)">
<path d="M409.651 -193.64C31.119 -91.8293 -262.55 -300.918 -362.069 -418.189L-403.988 -396.336L-585.237 455.071C-47.9757 174.994 1279.19 -292.688 1777.1 -453.43C1845.52 -460.953 1890.62 -466.756 1963.96 -504.989C1992.34 -519.785 1917.86 -498.874 1777.1 -453.43C1695.34 -444.443 1580.27 -433 1343.92 -360.859C909.748 -228.336 882.817 -320.904 409.651 -193.64Z" fill="url(#paint0_radial_2793_1198)"/>
<path d="M409.651 -193.64C31.119 -91.8293 -262.55 -300.918 -362.069 -418.189L-403.988 -396.336L-585.237 455.071C-47.9757 174.994 1279.19 -292.688 1777.1 -453.43C1845.52 -460.953 1890.62 -466.756 1963.96 -504.989C1992.34 -519.785 1917.86 -498.874 1777.1 -453.43C1695.34 -444.443 1580.27 -433 1343.92 -360.859C909.748 -228.336 882.817 -320.904 409.651 -193.64Z" fill="url(#paint1_radial_2793_1198)"/>
<path d="M409.651 -193.64C31.119 -91.8293 -262.55 -300.918 -362.069 -418.189L-403.988 -396.336L-585.237 455.071C-47.9757 174.994 1279.19 -292.688 1777.1 -453.43C1845.52 -460.953 1890.62 -466.756 1963.96 -504.989C1992.34 -519.785 1917.86 -498.874 1777.1 -453.43C1695.34 -444.443 1580.27 -433 1343.92 -360.859C909.748 -228.336 882.817 -320.904 409.651 -193.64Z" fill="url(#paint2_radial_2793_1198)"/>
<path d="M409.651 -193.64C31.119 -91.8293 -262.55 -300.918 -362.069 -418.189L-403.988 -396.336L-585.237 455.071C-47.9757 174.994 1279.19 -292.688 1777.1 -453.43C1845.52 -460.953 1890.62 -466.756 1963.96 -504.989C1992.34 -519.785 1917.86 -498.874 1777.1 -453.43C1695.34 -444.443 1580.27 -433 1343.92 -360.859C909.748 -228.336 882.817 -320.904 409.651 -193.64Z" fill="url(#paint3_radial_2793_1198)"/>
<path d="M409.651 -193.64C31.119 -91.8293 -262.55 -300.918 -362.069 -418.189L-403.988 -396.336L-585.237 455.071C-47.9757 174.994 1279.19 -292.688 1777.1 -453.43C1845.52 -460.953 1890.62 -466.756 1963.96 -504.989C1992.34 -519.785 1917.86 -498.874 1777.1 -453.43C1695.34 -444.443 1580.27 -433 1343.92 -360.859C909.748 -228.336 882.817 -320.904 409.651 -193.64Z" fill="url(#paint4_radial_2793_1198)"/>
<path d="M409.651 -193.64C31.119 -91.8293 -262.55 -300.918 -362.069 -418.189L-403.988 -396.336L-585.237 455.071C-47.9757 174.994 1279.19 -292.688 1777.1 -453.43C1845.52 -460.953 1890.62 -466.756 1963.96 -504.989C1992.34 -519.785 1917.86 -498.874 1777.1 -453.43C1695.34 -444.443 1580.27 -433 1343.92 -360.859C909.748 -228.336 882.817 -320.904 409.651 -193.64Z" fill="url(#paint5_radial_2793_1198)"/>
</g>
<g filter="url(#filter1_f_2793_1198)">
<path d="M908.447 -256.951C1493.95 -323.034 1789.53 -777.213 1864.13 -996.043L1934.79 -988.566L1904.53 -17.4823C1131.35 -99.2878 -188.9 -2.154 -921.558 78.7431C-1189.44 130.541 -1241.53 184.308 -1436.94 163.633C-1509.55 155.951 -1289.75 119.397 -921.558 78.7431C-817.445 58.6115 -680.736 38.7775 -490.35 23.7273C189.886 -30.0462 176.571 -174.347 908.447 -256.951Z" fill="url(#paint6_radial_2793_1198)"/>
<path d="M908.447 -256.951C1493.95 -323.034 1789.53 -777.213 1864.13 -996.043L1934.79 -988.566L1904.53 -17.4823C1131.35 -99.2878 -188.9 -2.154 -921.558 78.7431C-1189.44 130.541 -1241.53 184.308 -1436.94 163.633C-1509.55 155.951 -1289.75 119.397 -921.558 78.7431C-817.445 58.6115 -680.736 38.7775 -490.35 23.7273C189.886 -30.0462 176.571 -174.347 908.447 -256.951Z" fill="url(#paint7_radial_2793_1198)"/>
<path d="M908.447 -256.951C1493.95 -323.034 1789.53 -777.213 1864.13 -996.043L1934.79 -988.566L1904.53 -17.4823C1131.35 -99.2878 -188.9 -2.154 -921.558 78.7431C-1189.44 130.541 -1241.53 184.308 -1436.94 163.633C-1509.55 155.951 -1289.75 119.397 -921.558 78.7431C-817.445 58.6115 -680.736 38.7775 -490.35 23.7273C189.886 -30.0462 176.571 -174.347 908.447 -256.951Z" fill="url(#paint8_radial_2793_1198)"/>
<path d="M908.447 -256.951C1493.95 -323.034 1789.53 -777.213 1864.13 -996.043L1934.79 -988.566L1904.53 -17.4823C1131.35 -99.2878 -188.9 -2.154 -921.558 78.7431C-1189.44 130.541 -1241.53 184.308 -1436.94 163.633C-1509.55 155.951 -1289.75 119.397 -921.558 78.7431C-817.445 58.6115 -680.736 38.7775 -490.35 23.7273C189.886 -30.0462 176.571 -174.347 908.447 -256.951Z" fill="url(#paint9_radial_2793_1198)"/>
<path d="M908.447 -256.951C1493.95 -323.034 1789.53 -777.213 1864.13 -996.043L1934.79 -988.566L1904.53 -17.4823C1131.35 -99.2878 -188.9 -2.154 -921.558 78.7431C-1189.44 130.541 -1241.53 184.308 -1436.94 163.633C-1509.55 155.951 -1289.75 119.397 -921.558 78.7431C-817.445 58.6115 -680.736 38.7775 -490.35 23.7273C189.886 -30.0462 176.571 -174.347 908.447 -256.951Z" fill="url(#paint10_radial_2793_1198)"/>
<path d="M908.447 -256.951C1493.95 -323.034 1789.53 -777.213 1864.13 -996.043L1934.79 -988.566L1904.53 -17.4823C1131.35 -99.2878 -188.9 -2.154 -921.558 78.7431C-1189.44 130.541 -1241.53 184.308 -1436.94 163.633C-1509.55 155.951 -1289.75 119.397 -921.558 78.7431C-817.445 58.6115 -680.736 38.7775 -490.35 23.7273C189.886 -30.0462 176.571 -174.347 908.447 -256.951Z" fill="url(#paint11_radial_2793_1198)"/>
</g>
<g style="mix-blend-mode:overlay" filter="url(#filter2_f_2793_1198)">
<path d="M424.323 -287.817C45.7902 -186.005 -247.879 -395.094 -347.397 -512.365L-389.316 -490.513L-12.4832 172.436C490.554 -89.7999 1388.72 -416.088 1787.06 -547.091C1858.16 -554.883 1903.62 -560.064 1978.63 -599.166C2013.41 -617.296 1934.45 -595.56 1787.06 -547.091C1705.59 -538.162 1590.45 -525.804 1358.59 -455.035C924.42 -322.513 897.488 -415.08 424.323 -287.817Z" fill="url(#paint12_radial_2793_1198)"/>
<path d="M424.323 -287.817C45.7902 -186.005 -247.879 -395.094 -347.397 -512.365L-389.316 -490.513L-12.4832 172.436C490.554 -89.7999 1388.72 -416.088 1787.06 -547.091C1858.16 -554.883 1903.62 -560.064 1978.63 -599.166C2013.41 -617.296 1934.45 -595.56 1787.06 -547.091C1705.59 -538.162 1590.45 -525.804 1358.59 -455.035C924.42 -322.513 897.488 -415.08 424.323 -287.817Z" fill="url(#paint13_radial_2793_1198)"/>
<path d="M424.323 -287.817C45.7902 -186.005 -247.879 -395.094 -347.397 -512.365L-389.316 -490.513L-12.4832 172.436C490.554 -89.7999 1388.72 -416.088 1787.06 -547.091C1858.16 -554.883 1903.62 -560.064 1978.63 -599.166C2013.41 -617.296 1934.45 -595.56 1787.06 -547.091C1705.59 -538.162 1590.45 -525.804 1358.59 -455.035C924.42 -322.513 897.488 -415.08 424.323 -287.817Z" fill="url(#paint14_radial_2793_1198)"/>
<path d="M424.323 -287.817C45.7902 -186.005 -247.879 -395.094 -347.397 -512.365L-389.316 -490.513L-12.4832 172.436C490.554 -89.7999 1388.72 -416.088 1787.06 -547.091C1858.16 -554.883 1903.62 -560.064 1978.63 -599.166C2013.41 -617.296 1934.45 -595.56 1787.06 -547.091C1705.59 -538.162 1590.45 -525.804 1358.59 -455.035C924.42 -322.513 897.488 -415.08 424.323 -287.817Z" fill="url(#paint15_radial_2793_1198)"/>
</g>
<g style="mix-blend-mode:overlay" filter="url(#filter3_f_2793_1198)">
<path d="M836.07 -380.591C1421.57 -446.674 1717.15 -900.853 1791.75 -1119.68L1862.42 -1112.21L1716.48 -240.065C1254.4 -288.955 615.228 -258.281 26.6024 -202.155C-119.106 -159.781 -281.751 -122.124 -562.728 -99.9122C-1242.96 -46.1387 -1237.97 68.704 -1509.32 39.9937C-1640.06 26.161 -864.67 -117.173 26.6024 -202.155C233.65 -262.368 406.5 -332.107 836.07 -380.591Z" fill="url(#paint16_radial_2793_1198)"/>
<path d="M836.07 -380.591C1421.57 -446.674 1717.15 -900.853 1791.75 -1119.68L1862.42 -1112.21L1716.48 -240.065C1254.4 -288.955 615.228 -258.281 26.6024 -202.155C-119.106 -159.781 -281.751 -122.124 -562.728 -99.9122C-1242.96 -46.1387 -1237.97 68.704 -1509.32 39.9937C-1640.06 26.161 -864.67 -117.173 26.6024 -202.155C233.65 -262.368 406.5 -332.107 836.07 -380.591Z" fill="url(#paint17_radial_2793_1198)"/>
<path d="M836.07 -380.591C1421.57 -446.674 1717.15 -900.853 1791.75 -1119.68L1862.42 -1112.21L1716.48 -240.065C1254.4 -288.955 615.228 -258.281 26.6024 -202.155C-119.106 -159.781 -281.751 -122.124 -562.728 -99.9122C-1242.96 -46.1387 -1237.97 68.704 -1509.32 39.9937C-1640.06 26.161 -864.67 -117.173 26.6024 -202.155C233.65 -262.368 406.5 -332.107 836.07 -380.591Z" fill="url(#paint18_radial_2793_1198)"/>
<path d="M836.07 -380.591C1421.57 -446.674 1717.15 -900.853 1791.75 -1119.68L1862.42 -1112.21L1716.48 -240.065C1254.4 -288.955 615.228 -258.281 26.6024 -202.155C-119.106 -159.781 -281.751 -122.124 -562.728 -99.9122C-1242.96 -46.1387 -1237.97 68.704 -1509.32 39.9937C-1640.06 26.161 -864.67 -117.173 26.6024 -202.155C233.65 -262.368 406.5 -332.107 836.07 -380.591Z" fill="url(#paint19_radial_2793_1198)"/>
<path d="M836.07 -380.591C1421.57 -446.674 1717.15 -900.853 1791.75 -1119.68L1862.42 -1112.21L1716.48 -240.065C1254.4 -288.955 615.228 -258.281 26.6024 -202.155C-119.106 -159.781 -281.751 -122.124 -562.728 -99.9122C-1242.96 -46.1387 -1237.97 68.704 -1509.32 39.9937C-1640.06 26.161 -864.67 -117.173 26.6024 -202.155C233.65 -262.368 406.5 -332.107 836.07 -380.591Z" fill="url(#paint20_radial_2793_1198)"/>
</g>
<g style="mix-blend-mode:overlay" filter="url(#filter4_f_2793_1198)">
<path d="M246.359 -216.807C-23.1641 -144.315 -232.263 -293.191 -303.122 -376.69L-332.969 -361.131L-4.39648 269.156L1353.06 -438.494C1238.45 -378.745 1220.72 -430.229 911.578 -335.87C602.438 -241.511 583.262 -307.422 246.359 -216.807Z" fill="url(#paint21_radial_2793_1198)"/>
<path d="M246.359 -216.807C-23.1641 -144.315 -232.263 -293.191 -303.122 -376.69L-332.969 -361.131L-4.39648 269.156L1353.06 -438.494C1238.45 -378.745 1220.72 -430.229 911.578 -335.87C602.438 -241.511 583.262 -307.422 246.359 -216.807Z" fill="url(#paint22_radial_2793_1198)"/>
</g>
<g style="mix-blend-mode:overlay" filter="url(#filter5_f_2793_1198)">
<path d="M1124.08 -379.289C1540.97 -426.341 1751.43 -749.726 1804.55 -905.537L1854.86 -900.214L1742.45 162.29L-545.882 -79.8242C-352.673 -59.3819 -356.232 -141.152 128.11 -179.44C612.452 -217.728 602.972 -320.473 1124.08 -379.289Z" fill="url(#paint23_radial_2793_1198)"/>
<path d="M1124.08 -379.289C1540.97 -426.341 1751.43 -749.726 1804.55 -905.537L1854.86 -900.214L1742.45 162.29L-545.882 -79.8242C-352.673 -59.3819 -356.232 -141.152 128.11 -179.44C612.452 -217.728 602.972 -320.473 1124.08 -379.289Z" fill="url(#paint24_radial_2793_1198)"/>
</g>
<g style="mix-blend-mode:overlay" filter="url(#filter6_f_2793_1198)">
<path d="M424.324 -287.815C45.7917 -186.004 -247.878 -395.093 -347.396 -512.364L-249.825 1.71221L23.9784 64.8247L289.292 -35.8785L1376.96 -254.741C1376.96 -254.741 897.49 -415.079 424.324 -287.815Z" fill="url(#paint25_radial_2793_1198)"/>
<path d="M424.324 -287.815C45.7917 -186.004 -247.878 -395.093 -347.396 -512.364L-249.825 1.71221L23.9784 64.8247L289.292 -35.8785L1376.96 -254.741C1376.96 -254.741 897.49 -415.079 424.324 -287.815Z" fill="url(#paint26_radial_2793_1198)"/>
<path d="M424.324 -287.815C45.7917 -186.004 -247.878 -395.093 -347.396 -512.364L-249.825 1.71221L23.9784 64.8247L289.292 -35.8785L1376.96 -254.741C1376.96 -254.741 897.49 -415.079 424.324 -287.815Z" fill="url(#paint27_radial_2793_1198)"/>
<path d="M424.324 -287.815C45.7917 -186.004 -247.878 -395.093 -347.396 -512.364L-249.825 1.71221L23.9784 64.8247L289.292 -35.8785L1376.96 -254.741C1376.96 -254.741 897.49 -415.079 424.324 -287.815Z" fill="url(#paint28_radial_2793_1198)"/>
</g>
<g style="mix-blend-mode:overlay" filter="url(#filter7_f_2793_1198)">
<path d="M836.068 -380.587C1421.57 -446.67 1717.15 -900.849 1791.75 -1119.68L1938.41 -346.937L1704.53 380.036L1155.59 46.3733L-478.107 190.344C-478.107 190.344 104.192 -297.983 836.068 -380.587Z" fill="url(#paint29_radial_2793_1198)"/>
<path d="M836.068 -380.587C1421.57 -446.67 1717.15 -900.849 1791.75 -1119.68L1938.41 -346.937L1704.53 380.036L1155.59 46.3733L-478.107 190.344C-478.107 190.344 104.192 -297.983 836.068 -380.587Z" fill="url(#paint30_radial_2793_1198)"/>
<path d="M836.068 -380.587C1421.57 -446.67 1717.15 -900.849 1791.75 -1119.68L1938.41 -346.937L1704.53 380.036L1155.59 46.3733L-478.107 190.344C-478.107 190.344 104.192 -297.983 836.068 -380.587Z" fill="url(#paint31_radial_2793_1198)"/>
<path d="M836.068 -380.587C1421.57 -446.67 1717.15 -900.849 1791.75 -1119.68L1938.41 -346.937L1704.53 380.036L1155.59 46.3733L-478.107 190.344C-478.107 190.344 104.192 -297.983 836.068 -380.587Z" fill="url(#paint32_radial_2793_1198)"/>
</g>
</g>
<defs>
<filter id="filter0_f_2793_1198" x="-765.105" y="-689.561" width="2914.91" height="1324.5" filterUnits="userSpaceOnUse" color-interpolation-filters="sRGB">
<feFlood flood-opacity="0" result="BackgroundImageFix"/>
<feBlend mode="normal" in="SourceGraphic" in2="BackgroundImageFix" result="shape"/>
<feGaussianBlur stdDeviation="89.9343" result="effect1_foregroundBlur_2793_1198"/>
</filter>
<filter id="filter1_f_2793_1198" x="-1630.62" y="-1175.91" width="3745.28" height="1523.95" filterUnits="userSpaceOnUse" color-interpolation-filters="sRGB">
<feFlood flood-opacity="0" result="BackgroundImageFix"/>
<feBlend mode="normal" in="SourceGraphic" in2="BackgroundImageFix" result="shape"/>
<feGaussianBlur stdDeviation="89.9343" result="effect1_foregroundBlur_2793_1198"/>
</filter>
<filter id="filter2_f_2793_1198" x="-569.185" y="-785.382" width="2735.83" height="1137.69" filterUnits="userSpaceOnUse" color-interpolation-filters="sRGB">
<feFlood flood-opacity="0" result="BackgroundImageFix"/>
<feBlend mode="normal" in="SourceGraphic" in2="BackgroundImageFix" result="shape"/>
<feGaussianBlur stdDeviation="89.9343" result="effect1_foregroundBlur_2793_1198"/>
</filter>
<filter id="filter3_f_2793_1198" x="-1703.65" y="-1299.55" width="3745.93" height="1523.95" filterUnits="userSpaceOnUse" color-interpolation-filters="sRGB">
<feFlood flood-opacity="0" result="BackgroundImageFix"/>
<feBlend mode="normal" in="SourceGraphic" in2="BackgroundImageFix" result="shape"/>
<feGaussianBlur stdDeviation="89.9343" result="effect1_foregroundBlur_2793_1198"/>
</filter>
<filter id="filter4_f_2793_1198" x="-512.837" y="-618.363" width="2045.77" height="1067.39" filterUnits="userSpaceOnUse" color-interpolation-filters="sRGB">
<feFlood flood-opacity="0" result="BackgroundImageFix"/>
<feBlend mode="normal" in="SourceGraphic" in2="BackgroundImageFix" result="shape"/>
<feGaussianBlur stdDeviation="89.9343" result="effect1_foregroundBlur_2793_1198"/>
</filter>
<filter id="filter5_f_2793_1198" x="-725.751" y="-1085.41" width="2760.48" height="1427.56" filterUnits="userSpaceOnUse" color-interpolation-filters="sRGB">
<feFlood flood-opacity="0" result="BackgroundImageFix"/>
<feBlend mode="normal" in="SourceGraphic" in2="BackgroundImageFix" result="shape"/>
<feGaussianBlur stdDeviation="89.9343" result="effect1_foregroundBlur_2793_1198"/>
</filter>
<filter id="filter6_f_2793_1198" x="-527.265" y="-692.233" width="2084.1" height="936.926" filterUnits="userSpaceOnUse" color-interpolation-filters="sRGB">
<feFlood flood-opacity="0" result="BackgroundImageFix"/>
<feBlend mode="normal" in="SourceGraphic" in2="BackgroundImageFix" result="shape"/>
<feGaussianBlur stdDeviation="89.9343" result="effect1_foregroundBlur_2793_1198"/>
</filter>
<filter id="filter7_f_2793_1198" x="-657.976" y="-1299.55" width="2776.26" height="1859.45" filterUnits="userSpaceOnUse" color-interpolation-filters="sRGB">
<feFlood flood-opacity="0" result="BackgroundImageFix"/>
<feBlend mode="normal" in="SourceGraphic" in2="BackgroundImageFix" result="shape"/>
<feGaussianBlur stdDeviation="89.9343" result="effect1_foregroundBlur_2793_1198"/>
</filter>
<radialGradient id="paint0_radial_2793_1198" cx="0" cy="0" r="1" gradientUnits="userSpaceOnUse" gradientTransform="translate(-307.753 -1044.57) rotate(23.0703) scale(1883.88 2859.77)">
<stop stop-color="#A282FF"/>
<stop offset="1" stop-color="#A282FF" stop-opacity="0"/>
</radialGradient>
<radialGradient id="paint1_radial_2793_1198" cx="0" cy="0" r="1" gradientUnits="userSpaceOnUse" gradientTransform="translate(-341.109 -429.117) rotate(6.81274) scale(1616.91 1616.83)">
<stop stop-color="#FF279C"/>
<stop offset="1" stop-color="#FF279C" stop-opacity="0"/>
</radialGradient>
<radialGradient id="paint2_radial_2793_1198" cx="0" cy="0" r="1" gradientUnits="userSpaceOnUse" gradientTransform="translate(-403.988 -396.338) rotate(21.8005) scale(1316.08 1316.11)">
<stop stop-color="#6F9FFF"/>
<stop offset="1" stop-color="#FF6FCE" stop-opacity="0"/>
</radialGradient>
<radialGradient id="paint3_radial_2793_1198" cx="0" cy="0" r="1" gradientUnits="userSpaceOnUse" gradientTransform="translate(-110.752 -328.072) rotate(2.64133) scale(785.136 785.122)">
<stop stop-color="#0B3CFF"/>
<stop offset="1" stop-color="#0B3CFF" stop-opacity="0"/>
</radialGradient>
<radialGradient id="paint4_radial_2793_1198" cx="0" cy="0" r="1" gradientUnits="userSpaceOnUse" gradientTransform="translate(-372.129 -412.945) rotate(23.0256) scale(377.017 377.028)">
<stop stop-color="#DCFF93"/>
<stop offset="1" stop-color="#DCFF93" stop-opacity="0"/>
</radialGradient>
<radialGradient id="paint5_radial_2793_1198" cx="0" cy="0" r="1" gradientUnits="userSpaceOnUse" gradientTransform="translate(-360.392 -419.064) rotate(12.2478) scale(676.655 676.638)">
<stop stop-color="white"/>
<stop offset="1" stop-color="white" stop-opacity="0"/>
</radialGradient>
<radialGradient id="paint6_radial_2793_1198" cx="0" cy="0" r="1" gradientUnits="userSpaceOnUse" gradientTransform="translate(1443.18 -1842.21) rotate(135.436) scale(2831.78 4298.71)">
<stop stop-color="#82F7FF"/>
<stop offset="1" stop-color="#82D2FF" stop-opacity="0"/>
</radialGradient>
<radialGradient id="paint7_radial_2793_1198" cx="0" cy="0" r="1" gradientUnits="userSpaceOnUse" gradientTransform="translate(1828.8 -999.783) rotate(151.694) scale(2430.49 2430.37)">
<stop stop-color="#FF279C"/>
<stop offset="1" stop-color="#FF279C" stop-opacity="0"/>
</radialGradient>
<radialGradient id="paint8_radial_2793_1198" cx="0" cy="0" r="1" gradientUnits="userSpaceOnUse" gradientTransform="translate(1934.79 -988.567) rotate(136.706) scale(1978.28 1978.33)">
<stop stop-color="#6F9FFF"/>
<stop offset="1" stop-color="#FF6FCE" stop-opacity="0"/>
</radialGradient>
<radialGradient id="paint9_radial_2793_1198" cx="0" cy="0" r="1" gradientUnits="userSpaceOnUse" gradientTransform="translate(1562.26 -731.588) rotate(155.865) scale(1180.19 1180.17)">
<stop stop-color="#0B3CFF" stop-opacity="0"/>
<stop offset="1" stop-color="#0B3CFF"/>
</radialGradient>
<radialGradient id="paint10_radial_2793_1198" cx="0" cy="0" r="1" gradientUnits="userSpaceOnUse" gradientTransform="translate(1881.09 -994.249) rotate(135.481) scale(566.72 566.735)">
<stop stop-color="#DCFF93"/>
<stop offset="1" stop-color="#DCFF93" stop-opacity="0"/>
</radialGradient>
<radialGradient id="paint11_radial_2793_1198" cx="0" cy="0" r="1" gradientUnits="userSpaceOnUse" gradientTransform="translate(1861.3 -996.343) rotate(146.259) scale(1017.12 1017.1)">
<stop stop-color="white"/>
<stop offset="1" stop-color="white" stop-opacity="0"/>
</radialGradient>
<radialGradient id="paint12_radial_2793_1198" cx="0" cy="0" r="1" gradientUnits="userSpaceOnUse" gradientTransform="translate(-326.438 -523.292) rotate(6.81273) scale(1616.91 1616.83)">
<stop stop-color="#FF279C"/>
<stop offset="1" stop-color="#FF279C" stop-opacity="0"/>
</radialGradient>
<radialGradient id="paint13_radial_2793_1198" cx="0" cy="0" r="1" gradientUnits="userSpaceOnUse" gradientTransform="translate(-389.316 -490.513) rotate(21.8005) scale(1316.08 1316.11)">
<stop stop-color="#6F9FFF"/>
<stop offset="1" stop-color="#FF6FCE" stop-opacity="0"/>
</radialGradient>
<radialGradient id="paint14_radial_2793_1198" cx="0" cy="0" r="1" gradientUnits="userSpaceOnUse" gradientTransform="translate(-337.123 -504.929) rotate(13.8925) scale(1170.15 1170.13)">
<stop stop-color="#FFCF54"/>
<stop offset="1" stop-color="#FFCF54" stop-opacity="0"/>
</radialGradient>
<radialGradient id="paint15_radial_2793_1198" cx="0" cy="0" r="1" gradientUnits="userSpaceOnUse" gradientTransform="translate(-345.72 -513.239) rotate(12.2478) scale(676.655 676.638)">
<stop stop-color="white"/>
<stop offset="1" stop-color="white" stop-opacity="0"/>
</radialGradient>
<radialGradient id="paint16_radial_2793_1198" cx="0" cy="0" r="1" gradientUnits="userSpaceOnUse" gradientTransform="translate(1370.8 -1965.85) rotate(135.436) scale(2831.78 4298.71)">
<stop stop-color="#A282FF"/>
<stop offset="1" stop-color="#A282FF" stop-opacity="0"/>
</radialGradient>
<radialGradient id="paint17_radial_2793_1198" cx="0" cy="0" r="1" gradientUnits="userSpaceOnUse" gradientTransform="translate(1756.42 -1123.42) rotate(151.694) scale(2430.49 2430.37)">
<stop stop-color="#FF279C"/>
<stop offset="0.0001" stop-color="#27FF64"/>
<stop offset="1" stop-color="#EEFFEA" stop-opacity="0"/>
</radialGradient>
<radialGradient id="paint18_radial_2793_1198" cx="0" cy="0" r="1" gradientUnits="userSpaceOnUse" gradientTransform="translate(1862.42 -1112.21) rotate(136.706) scale(1978.28 1978.33)">
<stop stop-color="#6F9FFF"/>
<stop offset="1" stop-color="#FF6FCE" stop-opacity="0"/>
</radialGradient>
<radialGradient id="paint19_radial_2793_1198" cx="0" cy="0" r="1" gradientUnits="userSpaceOnUse" gradientTransform="translate(1781.48 -1103.62) rotate(144.614) scale(1758.93 1758.89)">
<stop stop-color="#0B3CFF"/>
<stop offset="1" stop-color="#0B3CFF" stop-opacity="0"/>
</radialGradient>
<radialGradient id="paint20_radial_2793_1198" cx="0" cy="0" r="1" gradientUnits="userSpaceOnUse" gradientTransform="translate(1788.92 -1119.98) rotate(146.259) scale(1017.13 1017.1)">
<stop stop-color="white"/>
<stop offset="1" stop-color="white" stop-opacity="0"/>
</radialGradient>
<radialGradient id="paint21_radial_2793_1198" cx="0" cy="0" r="1" gradientUnits="userSpaceOnUse" gradientTransform="translate(-264.448 -822.687) rotate(23.0703) scale(1341.36 2036.21)">
<stop stop-color="#A282FF"/>
<stop offset="1" stop-color="#A282FF" stop-opacity="0"/>
</radialGradient>
<radialGradient id="paint22_radial_2793_1198" cx="0" cy="0" r="1" gradientUnits="userSpaceOnUse" gradientTransform="translate(-301.928 -377.313) rotate(12.2478) scale(481.792 481.78)">
<stop stop-color="white"/>
<stop offset="1" stop-color="white" stop-opacity="0"/>
</radialGradient>
<radialGradient id="paint23_radial_2793_1198" cx="0" cy="0" r="1" gradientUnits="userSpaceOnUse" gradientTransform="translate(1504.82 -1508.02) rotate(135.436) scale(2016.29 3060.77)">
<stop stop-color="#A282FF"/>
<stop offset="1" stop-color="#A282FF" stop-opacity="0"/>
</radialGradient>
<radialGradient id="paint24_radial_2793_1198" cx="0" cy="0" r="1" gradientUnits="userSpaceOnUse" gradientTransform="translate(1802.53 -905.75) rotate(146.259) scale(724.214 724.196)">
<stop stop-color="white"/>
<stop offset="1" stop-color="white" stop-opacity="0"/>
</radialGradient>
<radialGradient id="paint25_radial_2793_1198" cx="0" cy="0" r="1" gradientUnits="userSpaceOnUse" gradientTransform="translate(-293.081 -1138.75) rotate(23.0703) scale(1883.88 2859.77)">
<stop stop-color="#A282FF"/>
<stop offset="1" stop-color="#A282FF" stop-opacity="0"/>
</radialGradient>
<radialGradient id="paint26_radial_2793_1198" cx="0" cy="0" r="1" gradientUnits="userSpaceOnUse" gradientTransform="translate(-326.437 -523.291) rotate(6.81275) scale(1616.91 1616.83)">
<stop stop-color="#27FFF2"/>
<stop offset="1" stop-color="#277EFF" stop-opacity="0"/>
</radialGradient>
<radialGradient id="paint27_radial_2793_1198" cx="0" cy="0" r="1" gradientUnits="userSpaceOnUse" gradientTransform="translate(-389.316 -490.511) rotate(21.8005) scale(1316.08 1316.11)">
<stop stop-color="#6F9FFF"/>
<stop offset="1" stop-color="#6FCBFF" stop-opacity="0"/>
</radialGradient>
<radialGradient id="paint28_radial_2793_1198" cx="0" cy="0" r="1" gradientUnits="userSpaceOnUse" gradientTransform="translate(1.35722 -312.735) rotate(4.44986) scale(607.752 607.742)">
<stop stop-color="#04FFF0"/>
<stop offset="1" stop-color="#6254FF" stop-opacity="0"/>
</radialGradient>
<radialGradient id="paint29_radial_2793_1198" cx="0" cy="0" r="1" gradientUnits="userSpaceOnUse" gradientTransform="translate(1370.8 -1965.84) rotate(135.436) scale(2831.78 4298.71)">
<stop stop-color="#A282FF"/>
<stop offset="1" stop-color="#A282FF" stop-opacity="0"/>
</radialGradient>
<radialGradient id="paint30_radial_2793_1198" cx="0" cy="0" r="1" gradientUnits="userSpaceOnUse" gradientTransform="translate(1756.42 -1123.42) rotate(151.694) scale(2430.49 2430.36)">
<stop stop-color="#27FFF2"/>
<stop offset="1" stop-color="#277EFF" stop-opacity="0"/>
</radialGradient>
<radialGradient id="paint31_radial_2793_1198" cx="0" cy="0" r="1" gradientUnits="userSpaceOnUse" gradientTransform="translate(1862.42 -1112.2) rotate(136.706) scale(1978.28 1978.33)">
<stop stop-color="#6F9FFF"/>
<stop offset="1" stop-color="#6FCBFF" stop-opacity="0"/>
</radialGradient>
<radialGradient id="paint32_radial_2793_1198" cx="0" cy="0" r="1" gradientUnits="userSpaceOnUse" gradientTransform="translate(1413.92 -648.393) rotate(154.056) scale(913.553 913.537)">
<stop stop-color="#04FFF0"/>
<stop offset="1" stop-color="#6254FF" stop-opacity="0"/>
</radialGradient>
<clipPath id="clip0_2793_1198">
<rect width="1277" height="519" fill="white"/>
</clipPath>
</defs>
</svg>
